<svg xmlns="http://www.w3.org/2000/svg" viewBox="0 0 158.08 181.02"><defs><style>.cls-1{fill:#e92426;}</style></defs><title>logo-adobe_1</title><g id="Layer_2"><g id="Layer_1-2"><path d="M147.26 9.14h1.1c1.34 0 2.45-.45 2.45-1.64 0-.9-.64-1.72-2.37-1.72a8.45 8.45 0 0 0-1.18 0zm0 5.77h-1.85V4.7a18.8 18.8 0 0 1 3.08-.28 5.42 5.42 0 0 1 3.3.82 2.54 2.54 0 0 1 .92 2.13 2.47 2.47 0 0 1-2 2.45v.1c.9.15 1.47 1 1.67 2.48a9.23 9.23 0 0 0 .62 2.54h-1.9a8 8 0 0 1-.66-2.62 1.87 1.87 0 0 0-2.16-1.72h-1.06zm1.67-13a7.48 7.48 0 0 0-7.33 7.7 7.33 7.33 0 1 0 14.65 0A7.44 7.44 0 0 0 149 1.94zm0-1.54a9.1 9.1 0 0 1 9.12 9.16A9.2 9.2 0 1 1 148.93.4zM17.6 164.5l-1.52-9.12c-.44-2.63-1-6.73-1.43-9.56h-.17c-.45 2.86-1.08 7.08-1.54 9.58l-1.65 9.1zm-7.13 5.92l-2 10.1h-7.4l9.22-42h9l8.35 42h-7.37l-2-10.1zM44.5 161.74a10.4 10.4 0 0 0-.12-1.8c-.3-2.1-1.4-3.96-3.17-3.96-3 0-4.15 4.4-4.15 9.52 0 5.9 1.6 9.26 4.05 9.26 1.13 0 2.43-.58 3.14-3.05a6.3 6.3 0 0 0 .26-1.92zm7.56-24.37v34.44c0 2.74.15 6.1.25 8.72H45.8l-.43-3.5h-.16a7.3 7.3 0 0 1-6.35 4c-6.27 0-9.37-6.92-9.37-15.65 0-10.63 4.63-15.8 9.68-15.8a5.36 5.36 0 0 1 5.2 3.16h.13v-15.36zM67.85 175.2c2.9 0 3.6-5.45 3.6-10 0-4.3-.72-9.88-3.73-9.88-3.2 0-3.87 5.6-3.87 9.88 0 5.18.85 10 3.93 10zm-.14 5.8c-7 0-11.35-5.62-11.35-15.64 0-11 5.6-15.82 11.53-15.82 6.9 0 11.2 5.88 11.2 15.64 0 12.54-6.76 15.82-11.3 15.82zM90.9 169.65a6.2 6.2 0 0 0 .3 1.94c.75 2.54 2 3.16 3.08 3.16 2.92 0 4.1-3.7 4.1-9.65 0-5.4-1.24-9.12-4.13-9.12-1.44 0-2.65 1.56-3.07 3.24a8.35 8.35 0 0 0-.28 1.9zm-7.57-32.28h7.57v15.87h.1a7.1 7.1 0 0 1 6.36-3.68c5.72 0 8.58 6.5 8.58 15 0 10.73-4.28 16.48-9.82 16.48-2.65 0-4.4-1.18-6-4.15H90l-.43 3.64h-6.5c.1-2.53.26-6 .26-8.7zM124.1 162.4c0-4.3-1.2-7.28-3.6-7.28-2.74 0-3.9 4-4 7.27zm-7.62 5.35c.1 5.5 3 7.3 6.57 7.3a16.17 16.17 0 0 0 5.68-1l1 5.45a22 22 0 0 1-8.08 1.4c-8.13 0-12.57-5.55-12.57-15 0-10.18 5.14-16.3 11.88-16.3 6.5 0 10.1 5.4 10.1 14.24a28.1 28.1 0 0 1-.22 4z"/><path d="M82.63 0h48.44v116L82.63 0zM48.5 0H0v116L48.5 0zM65.56 42.76L96.43 116H76.2l-9.23-23.33h-22.6l21.2-49.9z" class="cls-1"/></g></g></svg>