<svg xmlns="http://www.w3.org/2000/svg" viewBox="0 0 61.18 60.84"><defs><style>.cls-1{fill:#894181;}</style></defs><title>logo-jasmine</title><g id="Layer_2"><g id="Layer_1-2"><path d="M28.22 25.2H33l1.18-1.62V11H27v12.58l1.18 1.6M25.17 30.82l1.46-4.48-1.18-1.6-12.07-3.9-2.2 6.7 12.08 3.9 1.9-.62M29.6 35.45l-3.82-2.77-1.9.62-7.47 10.2 5.75 4.15 7.46-10.2v-2M35.4 32.68l-3.82 2.77v2L39 47.65l5.74-4.14-7.43-10.2-1.9-.63M34.55 26.34L36 30.82l1.9.62 12.1-3.9-2.2-6.7-12.07 3.9-1.18 1.6" class="cls-1"/><path d="M30.6 0a30.42 30.42 0 1 0 30.58 30.4A30.54 30.54 0 0 0 30.58 0zm0 6.16A24.26 24.26 0 1 1 6.2 30.4 24.33 24.33 0 0 1 30.6 6.17zM49.12 37.17l-9.18-3 .6-1.86 9.2 3-.62 1.87M37.4 22.52l-1.58-1.15 5.67-7.76 1.58 1.16-5.67 7.76M23.86 22.45L18.2 14.7l1.58-1.16 5.67 7.76-1.6 1.15M12 37.06l-.6-1.86 9.17-3 .6 1.86-9.17 3" class="cls-1"/><path d="M29.55 49.8h2v-9.6h-2v9.6z" class="cls-1"/></g></g></svg>