<svg xmlns="http://www.w3.org/2000/svg" xmlns:xlink="http://www.w3.org/1999/xlink" viewBox="0 0 95.74 95.8"><defs><style>.a{fill:url(#a);}.b{fill:#fff;}</style><linearGradient id="a" x1="-55.91" y1="295.44" x2="-54.23" y2="297.06" gradientTransform="matrix(95.74, 0, 0, -95.8, 5316.27, 28432.39)" gradientUnits="userSpaceOnUse"><stop offset="0" stop-color="#00aeff"/><stop offset="1" stop-color="#3369e7"/></linearGradient></defs><title>Asset 1</title><path class="a" d="M12.61,0H83.13A12.62,12.62,0,0,1,95.74,12.61V83.19A12.62,12.62,0,0,1,83.13,95.8H12.61A12.62,12.62,0,0,1,0,83.19V12.58A12.59,12.59,0,0,1,12.61,0Z"/><path class="b" d="M49,24.2a27.07,27.07,0,1,1-27,27.08A27,27,0,0,1,49,24.2Zm0,46.14A19.06,19.06,0,1,0,29.92,51.29,19,19,0,0,0,49,70.35Z"/><path class="b" d="M49,36.12V50.33a.56.56,0,0,0,.81.49l12.61-6.54a.57.57,0,0,0,.23-.78,15.69,15.69,0,0,0-13.07-7.93.58.58,0,0,0-.58.55ZM31.31,25.69,29.66,24a4.14,4.14,0,0,0-5.87,0l-2,2a4.14,4.14,0,0,0,0,5.87l1.63,1.63a.58.58,0,0,0,.87-.06,32,32,0,0,1,3.17-3.72,29.93,29.93,0,0,1,3.75-3.2A.55.55,0,0,0,31.31,25.69Zm26.52-4.3V18.1a4.15,4.15,0,0,0-4.15-4.16H44a4.15,4.15,0,0,0-4.15,4.16v3.37a.58.58,0,0,0,.73.55A30.24,30.24,0,0,1,49,20.84a30.69,30.69,0,0,1,8.13,1.1.56.56,0,0,0,.7-.55Z"/></svg>