<svg xmlns="http://www.w3.org/2000/svg" width="711.201" height="383.598"><defs><clipPath id="a"><path d="M11.52 162c0-80.32 123.8-145.44 276.48-145.44S564.48 81.68 564.48 162 440.68 307.44 288 307.44 11.52 242.32 11.52 162"/></clipPath><radialGradient id="b" cx="0" cy="0" r="1" fx="0" fy="0" gradientTransform="matrix(363.06 0 0 -363.06 177.52 256.31)" gradientUnits="userSpaceOnUse" spreadMethod="pad"><stop offset="0" stop-color="#aeb2d5"/><stop offset=".3" stop-color="#aeb2d5"/><stop offset=".75" stop-color="#484c89"/><stop offset="1" stop-color="#484c89"/></radialGradient><clipPath id="c"><path d="M0 324h576V0H0v324z"/></clipPath><clipPath id="d"><path d="M0 324h576V0H0v324z"/></clipPath></defs><g><g><g clip-path="url(#a)" transform="matrix(1.25 0 0 -1.25 -4.4 394.3)"><g><g><path fill="url(#b)" d="M11.52 162c0-80.32 123.8-145.44 276.48-145.44S564.48 81.68 564.48 162 440.68 307.44 288 307.44 11.52 242.32 11.52 162"/></g></g></g></g><g><g clip-path="url(#c)" transform="matrix(1.25 0 0 -1.25 -4.4 394.3)"><g><path fill="#777bb3" d="M288 27.36c146.73 0 265.68 60.28 265.68 134.64 0 74.36-118.95 134.64-265.68 134.64-146.73 0-265.68-60.28-265.68-134.64C22.32 87.64 141.27 27.36 288 27.36"/></g></g></g><g><g clip-path="url(#d)" transform="matrix(1.25 0 0 -1.25 -4.4 394.3)"><g><path d="M161.73 145.3c12.06 0 21.07 2.23 26.77 6.62 5.64 4.34 9.53 11.86 11.57 22.35 1.9 9.8 1.18 16.66-2.15 20.35-3.4 3.78-10.77 5.7-21.9 5.7h-19.27l-10.7-55h15.68zM98.67 77.57c-.9 0-1.75.4-2.32 1.1-.57.68-.8 1.6-.63 2.47l28.33 145.75c.28 1.4 1.5 2.43 2.95 2.43h61.05c19.2 0 33.47-5.2 42.45-15.48 9.03-10.33 11.8-24.77 8.3-42.92-1.45-7.4-3.92-14.26-7.35-20.4-3.44-6.16-8-11.86-13.5-16.94-6.64-6.2-14.12-10.68-22.26-13.32-8-2.6-18.3-3.93-30.56-3.93h-24.72L133.36 80c-.27-1.42-1.5-2.44-2.94-2.44H98.67z"/></g><g><path fill="#fff" d="M159.22 197.3h16.8c13.43 0 18.1-2.94 19.67-4.7 2.62-2.9 3.12-9.05 1.43-17.76-1.9-9.75-5.42-16.66-10.46-20.54-5.16-3.98-13.55-6-24.94-6H149.7l9.52 49zm28.83 35H127c-2.88 0-5.34-2.03-5.9-4.85L92.8 81.72c-.35-1.75.12-3.57 1.25-4.96 1.14-1.38 2.84-2.18 4.63-2.18h31.75c2.88 0 5.35 2.04 5.9 4.86l6.6 33.9h22.24c12.58 0 23.18 1.36 31.48 4.07 8.54 2.76 16.4 7.47 23.36 13.97 5.75 5.3 10.5 11.24 14.08 17.66s6.17 13.6 7.66 21.3c3.72 19.1.7 34.4-8.97 45.47-9.56 10.96-24.6 16.5-44.7 16.5m-45.63-90h19.3c12.8 0 22.35 2.42 28.6 7.24 6.28 4.83 10.5 12.88 12.7 24.16 2.1 10.83 1.14 18.48-2.87 22.93-4.02 4.45-12.06 6.68-24.12 6.68h-21.76l-11.85-61m45.63 84c18.37 0 31.77-4.8 40.2-14.45 8.4-9.64 10.95-23.1 7.6-40.38-1.4-7.1-3.74-13.62-7.03-19.52-3.3-5.9-7.6-11.3-12.92-16.18-6.34-5.93-13.38-10.16-21.13-12.67-7.75-2.53-17.62-3.8-29.62-3.8h-27.2l-7.53-38.74H98.67L127 226.3h61.05"/></g><g><path d="M311.58 116.3c-.9 0-1.75.4-2.3 1.1-.58.7-.82 1.6-.64 2.48l12.53 64.5c1.2 6.12.9 10.53-.83 12.4-1.06 1.12-4.23 3.03-13.6 3.03h-22.7l-15.77-81.06c-.27-1.4-1.5-2.43-2.94-2.43h-31.5c-.9 0-1.75.4-2.32 1.1-.56.7-.8 1.6-.62 2.48l28.33 145.75c.3 1.4 1.52 2.43 2.96 2.43h31.5c.9 0 1.74-.4 2.3-1.1.58-.68.8-1.6.64-2.47l-6.83-35.2h24.42c18.6 0 31.2-3.27 38.56-10.02 7.5-6.88 9.82-17.9 6.94-32.72l-13.18-67.82c-.27-1.4-1.5-2.43-2.94-2.43h-32z"/></g><g><path fill="#fff" d="M293.66 271.06h-31.5c-2.87 0-5.34-2.04-5.9-4.86l-28.32-145.75c-.34-1.76.12-3.58 1.26-4.96 1.14-1.4 2.84-2.2 4.63-2.2h31.5c2.87 0 5.34 2.05 5.9 4.86l15.27 78.65h20.23c9.37 0 11.33-2 11.4-2.08.58-.6 1.33-3.44.1-9.78l-12.53-64.5c-.34-1.75.12-3.56 1.26-4.95 1.14-1.4 2.84-2.2 4.63-2.2h32c2.86 0 5.33 2.05 5.88 4.86L362.65 186c3.1 15.9.45 27.85-7.86 35.5-7.94 7.27-21.22 10.8-40.6 10.8h-20.8l6.15 31.6c.34 1.77-.12 3.6-1.26 4.97-1.15 1.4-2.85 2.2-4.64 2.2m0-6l-7.53-38.76h28.06c17.65 0 29.83-3.07 36.53-9.23 6.7-6.16 8.7-16.14 6.03-29.94l-13.18-67.82h-32l12.53 64.5c1.44 7.33.9 12.34-1.56 15-2.48 2.67-7.75 4-15.8 4h-25.2l-16.22-83.5h-31.5l28.34 145.76h31.5"/></g><g><path d="M409.55 145.3c12.06 0 21.07 2.23 26.77 6.62 5.64 4.34 9.53 11.86 11.57 22.35 1.9 9.8 1.17 16.66-2.16 20.35-3.4 3.78-10.77 5.7-21.9 5.7h-19.27l-10.7-55h15.68zM346.5 77.57c-.9 0-1.76.4-2.33 1.1-.57.68-.8 1.6-.63 2.47l28.33 145.75c.28 1.4 1.5 2.43 2.95 2.43h61.05c19.2 0 33.47-5.2 42.45-15.48 9.03-10.33 11.8-24.77 8.3-42.92-1.44-7.4-3.9-14.26-7.35-20.4-3.44-6.16-7.98-11.86-13.5-16.94-6.64-6.2-14.12-10.68-22.26-13.32-8-2.6-18.27-3.93-30.54-3.93h-24.72L381.18 80c-.27-1.42-1.5-2.44-2.94-2.44H346.5z"/></g><g><path fill="#fff" d="M407.04 197.3h16.8c13.43 0 18.1-2.94 19.68-4.7 2.63-2.9 3.12-9.05 1.43-17.76-1.9-9.75-5.42-16.66-10.46-20.54-5.17-3.98-13.56-6-24.95-6h-12.03l9.52 49zm28.83 35h-61.05c-2.87 0-5.34-2.03-5.9-4.85L340.6 81.72c-.34-1.75.12-3.57 1.26-4.96 1.14-1.38 2.84-2.18 4.63-2.18h31.74c2.87 0 5.34 2.04 5.9 4.86l6.57 33.9h22.26c12.58 0 23.18 1.36 31.48 4.07 8.54 2.76 16.4 7.47 23.36 13.97 5.75 5.3 10.48 11.23 14.07 17.66 3.6 6.42 6.17 13.6 7.67 21.3 3.7 19.1.7 34.4-8.97 45.47-9.56 10.95-24.6 16.5-44.7 16.5m-45.63-90h19.3c12.8 0 22.35 2.42 28.6 7.24 6.28 4.83 10.5 12.88 12.7 24.16 2.1 10.83 1.14 18.48-2.87 22.93-4.02 4.45-12.06 6.68-24.12 6.68H402.1l-11.86-61m45.63 84c18.37 0 31.77-4.8 40.2-14.45 8.4-9.64 10.95-23.1 7.6-40.38-1.4-7.1-3.74-13.62-7.03-19.52-3.3-5.9-7.6-11.3-12.92-16.18-6.34-5.93-13.38-10.16-21.13-12.67-7.76-2.53-17.63-3.8-29.63-3.8h-27.2l-7.53-38.74H346.5L374.8 226.3h61.05"/></g></g></g></g></svg>