<svg xmlns="http://www.w3.org/2000/svg" viewBox="0 0 50 50"><defs><style>.cls-1{fill:#db395f;}.cls-2{fill:#fff;}</style></defs><title>logo-invision</title><g id="Layer_2"><g id="Layer_1-2"><path d="M46 0H5C2.52 0 0 1.76 0 4.26V45.1A5.3 5.3 0 0 0 5 50h40.87c2.5 0 4.13-2.4 4.13-4.9V4.27A4 4 0 0 0 45.87 0" class="cls-1"/><path d="M17.18 15.43a3 3 0 1 0-3-3 3 3 0 0 0 3 3M10.85 31.43a10.7 10.7 0 0 0-.27 2.3c0 2.65 1.43 4.42 4.48 4.42 2.53 0 4.58-1.42 6.05-3.85l-.88 3.7h5l2.87-11.57c.7-2.9 2.1-4.46 4.2-4.46a2.5 2.5 0 0 1 2.7 2.7 5.32 5.32 0 0 1-.22 1.62l-1.48 5.28a7.94 7.94 0 0 0-.3 2.23c0 2.52 1.48 4.36 4.57 4.36 2.64 0 4.75-1.7 5.92-5.78l-2-.76c-1 2.73-1.85 3.23-2.52 3.23s-1-.45-1-1.34a5.94 5.94 0 0 1 .22-1.38L39.63 27a11.37 11.37 0 0 0 .5-3.27c0-3.85-2.34-5.87-5.17-5.87-2.64 0-5.33 2.28-6.68 4.8l1-4.62H21.6l-1.07 4h3.6l-2.22 8.93c-1.72 3.85-4.9 4-5.3 3.87-.67-.15-1.1-.38-1.1-1.23a9.1 9.1 0 0 1 .32-2.13L19.2 18h-8.52L9.6 22h3.54l-2.3 9.43" class="cls-2"/></g></g></svg>