<svg xmlns="http://www.w3.org/2000/svg" viewBox="0 0 47 52.04"><defs><style>.cls-1{fill:#8bc74b;}</style></defs><title>logo-node</title><g id="Layer_2"><g id="Layer_1-2"><path d="M21.4.56a4.36 4.36 0 0 1 4.26 0c6.5 3.66 12.9 7.32 19.4 11A4 4 0 0 1 47 15v22a4 4 0 0 1-2.1 3.52l-19.35 11a4.2 4.2 0 0 1-4.3-.13l-5.8-3.4a3.4 3.4 0 0 1-1.12-.8c.25-.34.7-.38 1.05-.53a13.6 13.6 0 0 0 2.3-1.07.54.54 0 0 1 .6 0c1.66 1 3.3 1.93 5 2.87.35.2.7-.07 1-.24l19-10.74a.63.63 0 0 0 .35-.63q0-10.9 0-21.82a.68.68 0 0 0-.4-.68L23.9 3.54a.67.67 0 0 0-.75 0l-19.3 10.9a.67.67 0 0 0-.42.67q0 10.92 0 21.83a.62.62 0 0 0 .35.6l5.16 2.92a4 4 0 0 0 3.23.43 2.45 2.45 0 0 0 1.58-2.3c0-7.23 0-14.46 0-21.7a.54.54 0 0 1 .6-.55c.82 0 1.64 0 2.47 0a.57.57 0 0 1 .54.66c0 7.27 0 14.54 0 21.82a5.54 5.54 0 0 1-2.6 5 8 8 0 0 1-7.1-.2c-1.9-.92-3.66-2.04-5.52-3.05A4 4 0 0 1 0 37V15a4 4 0 0 1 2.05-3.5L21.4.56zM27 15.83c2.82-.18 5.84-.1 8.37 1.28a6.33 6.33 0 0 1 3.1 5.5.6.6 0 0 1-.65.43c-.82 0-1.64 0-2.45 0a.63.63 0 0 1-.6-.6 3.74 3.74 0 0 0-1.77-2.6 10.6 10.6 0 0 0-4.9-.7 6.65 6.65 0 0 0-3.5.87 2.22 2.22 0 0 0-.75 2.48c.26.62 1 .83 1.57 1 3.4.9 7 .8 10.33 2A4.86 4.86 0 0 1 39 28.3a6.08 6.08 0 0 1-1 5.8 8.13 8.13 0 0 1-4.37 2.36 21 21 0 0 1-6.6.28 10.4 10.4 0 0 1-5.8-2.18 6.08 6.08 0 0 1-2-4.8.55.55 0 0 1 .6-.48h2.48a.58.58 0 0 1 .6.57 3.75 3.75 0 0 0 1.4 2.63c1.66 1.08 3.76 1 5.68 1 1.6-.07 3.37-.1 4.67-1.14a2.58 2.58 0 0 0 .7-2.46c-.2-.73-1-1.07-1.6-1.3-3.36-1.05-7-.67-10.33-1.87a5 5 0 0 1-3.17-2.7 5.66 5.66 0 0 1 1.13-5.9A9.12 9.12 0 0 1 27 15.84z" class="cls-1"/></g></g></svg>