<svg xmlns="http://www.w3.org/2000/svg" viewBox="0 0 141.73 58.18"><defs><style>.cls-1{fill:#FF543C;}</style></defs><title>Epi_white</title><path d="M71.48 13.53c0-4 2.34-7 6.15-7s6.2 2.8 6.2 6.86v16.13c0 3.75-1.5 7.27-6.5 7.27h-1.57v6.45h1.58c4.63 0 7.15-1.64 11.07-5.57L115.08 11v23.22c0 6.56 3.87 9.32 8.26 9.32 3 0 4.8-1.05 7.56-3.8l10.83-10.85-4.45-4.23-11 10.84c-1.46 1.42-2.1 1.65-2.7 1.65a2.3 2.3 0 0 1-2.3-2.58V3.87c0-2-1-3.57-3.1-3.57-.88 0-1.64.3-3.16 1.82l-25 25v-14.7A12.48 12.48 0 0 0 77.62 0C73.9 0 71.26 1.23 67.5 5L38.2 34.28c-2.17 2.17-3.4 2.87-5.5 2.87A6.18 6.18 0 0 1 26.6 31l17.64-17.7a3.28 3.28 0 0 0 .94-2.7A12.58 12.58 0 0 0 32.8 0c-3.4 0-6.2.94-10.3 5L0 27.6 4.45 32l15.88-15.9v14c0 8.2 5.45 13.25 12.48 13.25 4 0 6.46-1.3 10-4.86l22.4-22.4V58.2h6.28V13.53zM26.6 22.15v-9.73a6.2 6.2 0 0 1 6.2-6.2 6.37 6.37 0 0 1 5.8 3.92z" class="cls-1"/></svg>