<svg xmlns="http://www.w3.org/2000/svg" viewBox="0 0 246.1 184.56"><defs><style>.cls-1{fill:#cc6798;}</style></defs><title>logo-sass_1@2x</title><g id="Layer_2"><path id="Layer_1-2" d="M211.92 106.1a51 51 0 0 0-22.3 5.17c-2.3-4.54-4.6-8.6-5-11.55-.45-3.46-1-5.57-.45-9.7s3-10 2.92-10.48-.55-2.56-5.5-2.6-9.2.93-9.7 2.24a54.24 54.24 0 0 0-2.07 7.33C169 91 160 107 154.78 115.46c-1.66-3.28-3.1-6.16-3.42-8.45-.45-3.46-1-5.57-.45-9.7s3-10 2.93-10.48-.54-2.56-5.48-2.6-9.22.93-9.7 2.24-1 4.36-2.08 7.33-13 29.75-16.18 36.67c-1.63 3.55-3 6.38-4 8.32a2 2 0 0 1-.2.35c-.84 1.66-1.34 2.56-1.34 2.56-.67 1.22-1.4 2.35-1.75 2.35s-.75-3.24.1-7.64c1.8-9.3 6.07-23.77 6-24.26 0-.27.8-2.8-2.8-4.1s-4.75.86-5.07.86-.54.76-.54.76 3.9-16.27-7.47-16.27c-7.1 0-16.9 7.77-21.76 14.78-3.06 1.66-9.57 5.2-16.54 9-2.65 1.48-5.4 3-8 4.36-.18-.18-.36-.4-.54-.58-13.77-14.7-39.2-25.08-38.13-44.82.4-7.2 2.88-26.07 48.86-49 37.85-18.66 68-13.5 73.18-2 7.47 16.36-16.13 46.75-55.24 51.16-14.84 1.7-22.66-4.05-24.64-6.2s-2.38-2.4-3.15-1.94c-1.26.67-.45 2.7 0 3.87 1.17 3.06 6 8.45 14.1 11.1 7.2 2.34 24.7 3.64 45.86-4.54 23.7-9.18 42.2-34.67 36.77-56C148.67.9 112.7-6.25 78.68 5.85 58.45 13 36.5 24.38 20.73 39.12 2 56.65-1 71.9.23 78.27c4.37 22.66 35.6 37.4 48.1 48.32-.62.35-1.2.66-1.7.93-6.25 3.1-30.07 15.55-36 28.72-6.74 14.92 1.08 25.62 6.25 27.06 16 4.46 32.55-3.54 41.4-16.76S66 136.17 62 128.3a.94.94 0 0 0-.18-.27l4.9-2.88c3.2-1.9 6.34-3.64 9-5.08a59.25 59.25 0 0 0-3.2 16.36c-.66 8.45 2.8 19.42 7.34 23.73a8.1 8.1 0 0 0 5.93 1.93c5.3 0 7.68-4.42 10.33-9.63 3.24-6.38 6.16-13.8 6.16-13.8s-3.65 20 6.24 20c3.6 0 7.24-4.68 8.86-7.06s.1-.12.27-.44l.58-.94v-.1c1.44-2.5 4.68-8.22 9.48-17.7C133.93 120.3 139.9 105 139.9 105a78.12 78.12 0 0 0 2.38 9.93c1.08 3.64 3.33 7.64 5.12 11.5-1.44 2-2.34 3.16-2.34 3.16-1.17 1.52-2.43 3.18-3.82 4.8-4.9 5.84-10.74 12.54-11.55 14.47-.95 2.3-.73 4 1.07 5.3 1.3 1 3.64 1.12 6 1a27.66 27.66 0 0 0 9-2.07 30.32 30.32 0 0 0 7.78-4.1A17.4 17.4 0 0 0 161 133.7a31 31 0 0 0-2.82-10.83c.45-.63.85-1.26 1.3-1.9a205.92 205.92 0 0 0 13.5-23.28 78.12 78.12 0 0 0 2.37 9.93c.9 3.15 2.74 6.56 4.36 9.9-7.14 5.8-11.54 12.53-13.12 16.94-2.83 8.18-.63 11.87 3.55 12.72 1.9.4 4.6-.5 6.56-1.35a29.9 29.9 0 0 0 8.3-4.26c4.82-3.55 9.45-8.5 9.18-15.2a28.72 28.72 0 0 0-2.07-9c6.08-2.5 13.9-3.9 23.88-2.73 21.4 2.53 25.62 15.88 24.8 21.5s-5.3 8.68-6.78 9.62-2 1.26-1.84 1.93c.18 1 .9.94 2.16.76 1.75-.3 11.24-4.53 11.64-14.87.8-13.14-11.8-27.53-34.04-27.43zM46.85 161.75c-7.1 7.73-17 10.65-21.26 8.18-4.6-2.65-2.8-14.07 5.92-22.25a113.24 113.24 0 0 1 16.68-12.45c1-.63 2.56-1.53 4.4-2.65l.5-.27 1.08-.66c3.2 11.68.13 21.97-7.33 30.1zm51.7-35.15c-2.47 6-7.64 21.44-10.8 20.6-2.7-.73-4.35-12.42-.53-24 1.93-5.8 6-12.73 8.4-15.43 3.88-4.32 8.15-5.75 9.18-4 1.3 2.33-4.72 19.05-6.25 22.83zM141.2 147c-1 .54-2 .9-2.46.63s.45-.9.45-.9 5.34-5.75 7.45-8.36c1.2-1.53 2.65-3.33 4.18-5.35v.58c0 6.9-6.66 11.52-9.62 13.4zm32.9-7.5c-.75-.55-.62-2.35 1.94-8a30 30 0 0 1 7.33-9.45 12.72 12.72 0 0 1 .72 4.14c-.1 8.7-6.26 11.95-10 13.3z" class="cls-1"/></g></svg>