<svg xmlns="http://www.w3.org/2000/svg" viewBox="0 0 49.16 47.94"><defs><style>.cls-1{fill:url(#radial-gradient);}.cls-2{fill:#ff7719;}</style><radialGradient id="radial-gradient" cx="-127.23" cy="148.69" r="56.59" gradientTransform="translate(140.59 -159.33) scale(1.09)" gradientUnits="userSpaceOnUse"><stop offset="0" stop-color="#3a2c22"/><stop offset=".01" stop-color="#392b21"/><stop offset=".29" stop-color="#2c1b11"/><stop offset=".6" stop-color="#241107"/><stop offset="1" stop-color="#220e04"/></radialGradient></defs><title>logo-ai</title><g id="Layer_2"><g id="Layer_1-2"><g id="icon"><path d="M1.05 1.05H48.1V46.9H1.06z" class="cls-1"/><path d="M47.06 2.1v43.74H2.1V2.1h45M49.16 0H0v47.94h49.16V0z" class="cls-2"/></g><path id="A" d="M17.6 29.18l-2.28 6.32c0 .22-.2.3-.4.3h-3.75c-.26 0-.32-.15-.26-.37 2.07-5.65 5.43-14.83 7.82-21.16a5.88 5.88 0 0 0 .32-2 .23.23 0 0 1 .26-.27h5.07a.27.27 0 0 1 .3.2c2.8 7.66 5.74 15.6 8.63 23.24.07.22 0 .32-.22.32h-4.15a.3.3 0 0 1-.32-.22l-2.38-6.4h-8.6zm7.6-3.54c-.78-2.42-2.62-7.34-3.37-9.9-.58 2.38-2.1 6.57-3.22 9.9z" class="cls-2"/><g id="i"><path d="M34.22 18.05h4.2V35.8h-4.2z" class="cls-2"/><circle cx="36.31" cy="14.72" r="2.02" class="cls-2"/></g></g></g></svg>