<svg xmlns="http://www.w3.org/2000/svg" viewBox="0 0 140.24 25.31"><defs><style>.cls-1{fill:#fff;}</style></defs><title>logo-codepen</title><g id="Layer_2"><g id="Layer_1-2"><path d="M8.8 6.2A6.4 6.4 0 0 1 13 7.73l1.52-1.82a8.8 8.8 0 1 0 0 13.5L13 17.6A6.44 6.44 0 1 1 8.8 6.2zM57.6 4.35h-4.75a1.2 1.2 0 0 0-1.2 1.2v14.22a1.2 1.2 0 0 0 1.2 1.23h4.75a8.3 8.3 0 1 0 0-16.6zm0 14.24H54V6.7h3.6a5.93 5.93 0 1 1 0 11.86zM72.33 5.54v14.23a1.2 1.2 0 0 0 1.2 1.23h9.87v-2.4h-8.7v-4.76h5.54v-2.37H74.7V6.72h8.7V4.35h-9.88a1.2 1.2 0 0 0-1.2 1.2zM108.24 5.54v14.23a1.2 1.2 0 0 0 1.2 1.23h9.88v-2.4h-8.7v-4.76h5.54v-2.37h-5.54V6.72h8.7V4.35h-9.9a1.2 1.2 0 0 0-1.18 1.2zM97 4.35h-5.2a1.2 1.2 0 0 0-1.18 1.2V21H93v-7.16h4a4.75 4.75 0 1 0 0-9.5zm0 7.12h-4V6.72h4a2.37 2.37 0 0 1 0 4.75zM137.86 4.35V16.5L128.1 4.78a1.2 1.2 0 0 0-2.1.76V21h2.37V8.8l9.77 11.73a1.2 1.2 0 0 0 2.1-.76V4.35zM44.93 8.6v-.46l-.3-.15-.06-.05L32.9.18a1.1 1.1 0 0 0-1.22 0l-11.56 7.7L20 8l-.05.06v.47a1.12 1.12 0 0 0 0 .13v7.7a1.12 1.12 0 0 0 0 .15V16.93l.05.06.06.05 11.57 7.7a1.1 1.1 0 0 0 1.2 0l11.58-7.7.07-.05.05-.06V16.5a1.13 1.13 0 0 0 0-.13V8.8a1.13 1.13 0 0 0 0-.14zM32.3 15.24l-3.86-2.57 3.85-2.57 3.84 2.56zm-1.1-7l-4.72 3.15-3.8-2.58 8.52-5.68zm-6.67 4.46l-2.72 1.8v-3.67zm2 1.3l4.72 3.15v5.07l-8.52-5.68zm6.9 3.15L38.08 14l3.8 2.55-8.52 5.68zm6.66-4.46l2.7-1.83v3.64zm-2-1.32l-4.72-3.2V3.13L41.9 8.8z" class="cls-1"/></g></g></svg>