<svg xmlns="http://www.w3.org/2000/svg" viewBox="0 0 180.52 180.55"><defs><style>.cls-1{fill:#feca04;}</style></defs><title>logo-anw</title><g id="Layer_2"><path id="Layer_1-2" d="M90.26 0a90.28 90.28 0 1 0 90.26 90.3A90.28 90.28 0 0 0 90.26 0zm-8.92 27.76a10.24 10.24 0 0 1 17.87-.07c1.3 2.48 33.53 72.34 33.53 72.34-3.42 3-8.55 5.46-12.63 5.72a9.86 9.86 0 0 1-9.25-4.42c-2.53-3.57-2-9-1.2-21.85.23-3.73 0-8.3-3-9.6-2.74-1.23-4.86.9-7.87 3.46-2.16 1.82-16.42 14.9-23.93 22.1.74-2.1 5.7-15.86 5.05-21.65-.82-7.2-7.5-11.43-14.27-12.22 2.37-5.06 13.07-28.3 15.7-33.82zm52.06 112.4c-3.23-.67-6.2-2.6-8.17-7.5-1.23-3-4-6.48-8.18-6.48H63.7c-3.28 0-6.22 2.08-8.2 6.43-2.55 5.77-6.64 8.44-12.3 7.52a10.22 10.22 0 0 1-7.2-14.64c.9-2 27.1-58.56 27.1-58.56 9.4 1.75 9.5 8.84 8.87 12.26-1.63 8.58-8 24.56-8.4 25.9-.56 2.08-.37 5.13 1.75 6.06 1.86.78 3.64.4 5.5-1.12 2.86-2.3 28.2-26.3 30.7-28.65 0 4.42-.12 8.84-.16 13.27-.07 11.37 7.65 14.64 10.85 15.94 8.26 3.3 19-2.8 22.6-6 1.15 2.45 8 16.5 9.85 21.25 3.6 9.22-4.42 15.8-11.3 14.34z" class="cls-1"/></g></svg>