<svg xmlns="http://www.w3.org/2000/svg" viewBox="0 0 59.18 59.18"><defs><style>.cls-1{fill:#f16522;}.cls-2{fill:#fff;}</style></defs><title>logo-es6</title><g id="Layer_2"><g id="Layer_1-2"><path d="M0 0h59.18v59.18H0z" class="cls-1"/><path d="M24.4 37h9.05v-2.48H27.2V30.7H33v-2.46h-5.8v-3.57h6.25V22.2H24.4V37zm21.15-4c0-3-.2-3.6-4.17-4.55-2.55-.62-2.6-.67-2.6-2.35 0-1.3.33-1.7 2.22-1.7a19.4 19.4 0 0 1 3.95.45l.3-2.35A20.16 20.16 0 0 0 41 22c-3.75 0-5 1.33-5 4 0 3.13.5 3.82 4.06 4.62 2.66.58 2.7.7 2.7 2.35 0 1.42-.32 1.84-2.34 1.84a13.92 13.92 0 0 1-4.17-.68l-.5 2.2a12.44 12.44 0 0 0 4.63.9c4.37 0 5.2-1.45 5.2-4.25zm5.15-5.5c0-2.26 1.1-2.7 3.7-2.7a12.62 12.62 0 0 1 2.1.2l.18-2.27a12.87 12.87 0 0 0-2.55-.27c-4 0-6.12 1.24-6.12 5.15V33c0 2.55.76 4.24 4.58 4.24 3.48 0 4.55-1.73 4.55-4V32.1c0-2.55-1.1-3.66-3.77-3.66a8.24 8.24 0 0 0-2.64.4v-1.38zm2.22 3.3c1 0 1.5.34 1.5 1.4v1.1c0 1.13-.45 1.62-1.85 1.62s-1.86-.4-1.86-1.62v-2a5.8 5.8 0 0 1 2.23-.47z" class="cls-2"/></g></g></svg>